<svg xmlns="http://www.w3.org/2000/svg" viewBox="0 0 120 120">
  <!-- Background -->
  <circle cx="60" cy="60" r="58" fill="#F5F0E6"/>
  <circle cx="60" cy="60" r="58" fill="none" stroke="#4A6A7C" stroke-width="2.5"/>
  <!-- Face -->
  <circle cx="60" cy="68" r="26" fill="#FDF6E8"/>
  <!-- Eyes -->
  <circle cx="50" cy="66" r="2.5" fill="#5C5347"/>
  <circle cx="70" cy="66" r="2.5" fill="#5C5347"/>
  <circle cx="51" cy="65" r="0.8" fill="white"/>
  <circle cx="71" cy="65" r="0.8" fill="white"/>
  <!-- Mouth - creative half-smile -->
  <path d="M54 78 Q60 82 68 77" fill="none" stroke="#A89888" stroke-width="1.8" stroke-linecap="round"/>
  <!-- Accessory: ARTIST BERET - dusty blue -->
  <ellipse cx="58" cy="38" rx="30" ry="18" fill="#5B7A8C"/>
  <circle cx="48" cy="26" r="6" fill="#5B7A8C"/>
  <path d="M32 48 Q60 40 88 48" fill="none" stroke="#4A6A7C" stroke-width="3"/>
  <!-- Hair peeking out -->
  <path d="M34 50 Q36 46 40 48" fill="#8B7D6B"/>
  <path d="M86 50 Q84 46 80 48" fill="#8B7D6B"/>
  <!-- Pencil behind ear -->
  <g transform="translate(90, 54) rotate(20)">
    <rect x="-2" y="-16" width="4" height="24" rx="1.5" fill="#D4A843"/>
    <polygon points="-2,8 2,8 0,12" fill="#5C5347"/>
  </g>
</svg>
