<svg xmlns="http://www.w3.org/2000/svg" viewBox="0 0 120 120">
  <!-- Background -->
  <circle cx="60" cy="60" r="58" fill="#F5F0E6"/>
  <circle cx="60" cy="60" r="58" fill="none" stroke="#B08830" stroke-width="2.5"/>
  <!-- Face -->
  <circle cx="60" cy="66" r="26" fill="#FDF6E8"/>
  <!-- Hair -->
  <path d="M34 58 Q36 28 60 24 Q84 28 86 58" fill="#8B7D6B"/>
  <path d="M34 58 Q38 46 60 42 Q82 46 86 58" fill="#8B7D6B"/>
  <!-- Eyes -->
  <circle cx="50" cy="64" r="2.5" fill="#5C5347"/>
  <circle cx="70" cy="64" r="2.5" fill="#5C5347"/>
  <circle cx="51" cy="63" r="0.8" fill="white"/>
  <circle cx="71" cy="63" r="0.8" fill="white"/>
  <!-- Warm smile -->
  <path d="M48 76 Q54 82 60 82 Q66 82 72 76" fill="none" stroke="#A89888" stroke-width="2" stroke-linecap="round"/>
  <!-- Accessory: CROWN - warm gold -->
  <path d="M40 28 L42 16 L48 24 L54 12 L60 24 L66 12 L72 24 L78 16 L80 28 Z" fill="#D4A843" stroke="#B08830" stroke-width="1.5"/>
  <!-- Crown jewels -->
  <circle cx="54" cy="22" r="2" fill="#C49A38"/>
  <circle cx="66" cy="22" r="2" fill="#C49A38"/>
  <circle cx="60" cy="18" r="2" fill="#E8C45A"/>
</svg>
