<svg xmlns="http://www.w3.org/2000/svg" viewBox="0 0 120 120">
  <!-- Background -->
  <circle cx="60" cy="60" r="58" fill="#F5F0E6"/>
  <circle cx="60" cy="60" r="58" fill="none" stroke="#7A3333" stroke-width="2.5"/>
  <!-- Face -->
  <circle cx="60" cy="68" r="26" fill="#FDF6E8"/>
  <!-- Eyes - stern -->
  <circle cx="50" cy="66" r="2.5" fill="#5C5347"/>
  <circle cx="70" cy="66" r="2.5" fill="#5C5347"/>
  <circle cx="51" cy="65" r="0.8" fill="white"/>
  <circle cx="71" cy="65" r="0.8" fill="white"/>
  <!-- Stern eyebrows -->
  <path d="M40 58 Q46 55 56 60" fill="none" stroke="#8B7D6B" stroke-width="2.5" stroke-linecap="round"/>
  <path d="M64 60 Q72 55 80 58" fill="none" stroke="#8B7D6B" stroke-width="2.5" stroke-linecap="round"/>
  <!-- Mouth - flat stern -->
  <line x1="52" y1="78" x2="68" y2="78" stroke="#A89888" stroke-width="2" stroke-linecap="round"/>
  <!-- Accessory: MILITARY BERET - deep red -->
  <path d="M30 50 Q32 28 60 24 Q88 28 88 50" fill="#9E4444"/>
  <path d="M30 50 Q34 42 60 38 Q86 42 88 50" fill="#9E4444"/>
  <path d="M60 24 Q80 16 96 28 Q92 24 88 28" fill="#9E4444"/>
  <path d="M30 50 Q60 44 88 50" fill="none" stroke="#7A3333" stroke-width="3"/>
  <circle cx="36" cy="46" r="4" fill="#B55555" stroke="#7A3333" stroke-width="1"/>
</svg>
